# xmcd
#
# Track frame offsets:
#  150
#  14199
#  32998
#  44906
#  64491
#  79592
#  102631
#  114715
#  134339
#  154687
#  173296
#  199147
#  223831
#  246087
#  270981
#  289800
#
# Disc length: 4195 seconds
#
# Revision: 0
# Processed by: cddbd v1.5.1PL2 Copyright (c) Steve Scherf et al.
# Submitted via: Collectorz.com_Music_Collector 6.11
#
DISCID=f6106110
DTITLE=Pitre, Wild Bill - I Was Raised On A Farm
DYEAR=2002
DGENRE=Blues
TTITLE0=Bill's Boogie
TTITLE1=Who's making Love To You Tonight
TTITLE2=Ain't Comin' Back
TTITLE3=Sawmill Blues
TTITLE4=Bon Ton Roule
TTITLE5=Christmas Blues
TTITLE6=Houston Boogie
TTITLE7=Black Cat
TTITLE8=Hey Little Girl
TTITLE9=Ain't That Wantin' You
TTITLE10=I Woke Up This Morning
TTITLE11=Black Girl Blues
TTITLE12=Mexican Baby
TTITLE13=If You Miss Me Like You Do
TTITLE14=I Don't Give A Damn
TTITLE15=I Been Workin'
EXTD=
EXTT0=
EXTT1=
EXTT2=
EXTT3=
EXTT4=
EXTT5=
EXTT6=
EXTT7=
EXTT8=
EXTT9=
EXTT10=
EXTT11=
EXTT12=
EXTT13=
EXTT14=
EXTT15=
PLAYORDER=
